<svg id="Layer_1" data-name="Layer 1" xmlns="http://www.w3.org/2000/svg" viewBox="0 0 51.44 36.52"><path d="M4.08,36.44l1.2-.75L24.79,23.55a.47.47,0,0,0,.26-.47c0-1.16,0-2.32,0-3.49v-.34a2.94,2.94,0,0,0-.33.19l-8.6,5.34L2.42,33.32c-.48.29-.38.13-.39.68v2.49H0c0-.08,0-.16,0-.23q0-9.88,0-19.75a.46.46,0,0,1,.28-.43L20.67,3.33l4.76-3,.25-.15.26.15L51,16.09a.52.52,0,0,1,.28.49q0,9.8,0,19.57v.34H49.4c0-1.06,0-2.11,0-3.17s0-2.13,0-3.19V17.4l-3.49-2.19V36.49H44.56V14.8c0-.55.08-.39-.38-.69l-2.85-1.79L41,12.15c0,.85,0,1.65,0,2.45V36.49H39.7V32.07q0-10.18,0-20.37a.56.56,0,0,0-.29-.54c-1-.59-2-1.21-2.93-1.82l-.29-.17V36.49H34.86V8.3L31.33,6.09V36.45a5.12,5.12,0,0,1-1.42,0V5.19L26.48,3l-.06,0a0,0,0,0,0,0,0s0,.08,0,.12q0,16.61,0,33.23v0c-.21.06-4.21.09-4.77,0l.2-.14,3-1.89a.35.35,0,0,0,.21-.34c0-1.23,0-2.46,0-3.69a1.72,1.72,0,0,0,0-.2c-.11.07-.21.11-.29.17L16,35.82l-.95.59a.66.66,0,0,1-.27.09H12.71l0,0a0,0,0,0,1,0,0l.09-.07L25,28.77s0,0,0,0l0,0V24.65l-.25.13L13.14,32l-7,4.34a.78.78,0,0,1-.49.14H4.09Zm-2-15.29L25,6.85A37.57,37.57,0,0,0,25,2.75L2.05,17ZM2,26.7l.34-.2,22.42-14a.43.43,0,0,0,.25-.41c0-1.19,0-2.39,0-3.58,0-.07,0-.14,0-.27l-.31.19L9.84,17.73,2.3,22.42a.5.5,0,0,0-.27.49c0,.66,0,1.32,0,2Zm23-13-.29.16L14.86,20,2.3,27.82a.51.51,0,0,0-.27.49c0,1.15,0,2.3,0,3.45v.34l.34-.2,6.11-3.8L24.8,18a.46.46,0,0,0,.25-.45c0-1.16,0-2.32,0-3.48Z" style="fill:#fff"/></svg>